{
    "asset" : {
        "generator" : "Khronos glTF Blender I/O v3.4.50",
        "version" : "2.0"
    },
    "scene" : 1,
    "scenes" : [
        {
            "name" : "main_scene"
        },
        {
            "name" : "small_bathroom_props",
            "nodes" : [
                8
            ]
        }
    ],
    "nodes" : [
        {
            "mesh" : 0,
            "name" : "hinge"
        },
        {
            "mesh" : 1,
            "name" : "seat"
        },
        {
            "mesh" : 2,
            "name" : "seat_lid"
        },
        {
            "children" : [
                0,
                1,
                2
            ],
            "mesh" : 3,
            "name" : "hinge_support"
        },
        {
            "mesh" : 4,
            "name" : "flush_button"
        },
        {
            "children" : [
                4
            ],
            "mesh" : 5,
            "name" : "flush_button_lid",
            "translation" : [
                0,
                0.28419601917266846,
                0
            ]
        },
        {
            "children" : [
                5
            ],
            "mesh" : 6,
            "name" : "tank",
            "translation" : [
                -0.11476773023605347,
                0.24109148979187012,
                0.003943681716918945
            ]
        },
        {
            "children" : [
                3,
                6
            ],
            "mesh" : 7,
            "name" : "base",
            "translation" : [
                -0.6061390042304993,
                0.8889762163162231,
                3.742093324661255
            ]
        },
        {
            "children" : [
                7
            ],
            "name" : "small_bathroom_toilet"
        }
    ],
    "meshes" : [
        {
            "name" : "Cylinder",
            "primitives" : [
                {
                    "attributes" : {
                        "POSITION" : 0,
                        "TEXCOORD_0" : 1,
                        "NORMAL" : 2
                    },
                    "indices" : 3
                }
            ]
        },
        {
            "name" : "Cube.039",
            "primitives" : [
                {
                    "attributes" : {
                        "POSITION" : 4,
                        "TEXCOORD_0" : 5,
                        "NORMAL" : 6
                    },
                    "indices" : 7
                }
            ]
        },
        {
            "name" : "Cube.038",
            "primitives" : [
                {
                    "attributes" : {
                        "POSITION" : 8,
                        "TEXCOORD_0" : 9,
                        "NORMAL" : 10
                    },
                    "indices" : 11
                }
            ]
        },
        {
            "name" : "Cylinder.001",
            "primitives" : [
                {
                    "attributes" : {
                        "POSITION" : 12,
                        "TEXCOORD_0" : 13,
                        "NORMAL" : 14
                    },
                    "indices" : 15
                }
            ]
        },
        {
            "name" : "Cube.036",
            "primitives" : [
                {
                    "attributes" : {
                        "POSITION" : 16,
                        "TEXCOORD_0" : 17,
                        "NORMAL" : 18
                    },
                    "indices" : 19
                }
            ]
        },
        {
            "name" : "Cube.037",
            "primitives" : [
                {
                    "attributes" : {
                        "POSITION" : 20,
                        "TEXCOORD_0" : 21,
                        "NORMAL" : 22
                    },
                    "indices" : 23
                }
            ]
        },
        {
            "name" : "Cube.035",
            "primitives" : [
                {
                    "attributes" : {
                        "POSITION" : 24,
                        "TEXCOORD_0" : 25,
                        "NORMAL" : 26
                    },
                    "indices" : 27
                }
            ]
        },
        {
            "name" : "Cube.040",
            "primitives" : [
                {
                    "attributes" : {
                        "POSITION" : 28,
                        "TEXCOORD_0" : 29,
                        "NORMAL" : 30
                    },
                    "indices" : 31
                }
            ]
        }
    ],
    "accessors" : [
        {
            "bufferView" : 0,
            "componentType" : 5126,
            "count" : 462,
            "max" : [
                0.01192774809896946,
                0.011927509680390358,
                0.09644909203052521
            ],
            "min" : [
                -0.011927749030292034,
                -0.011927986517548561,
                -0.10139115899801254
            ],
            "type" : "VEC3"
        },
        {
            "bufferView" : 1,
            "componentType" : 5126,
            "count" : 462,
            "type" : "VEC2"
        },
        {
            "bufferView" : 2,
            "componentType" : 5126,
            "count" : 462,
            "type" : "VEC3"
        },
        {
            "bufferView" : 3,
            "componentType" : 5123,
            "count" : 2016,
            "type" : "SCALAR"
        },
        {
            "bufferView" : 4,
            "componentType" : 5126,
            "count" : 1237,
            "max" : [
                0.5786629319190979,
                -0.0013327216729521751,
                0.23118305206298828
            ],
            "min" : [
                0.007127523422241211,
                -0.03435089811682701,
                -0.23118305206298828
            ],
            "type" : "VEC3"
        },
        {
            "bufferView" : 5,
            "componentType" : 5126,
            "count" : 1237,
            "type" : "VEC2"
        },
        {
            "bufferView" : 6,
            "componentType" : 5126,
            "count" : 1237,
            "type" : "VEC3"
        },
        {
            "bufferView" : 7,
            "componentType" : 5123,
            "count" : 3456,
            "type" : "SCALAR"
        },
        {
            "bufferView" : 8,
            "componentType" : 5126,
            "count" : 610,
            "max" : [
                0.5786629319190979,
                0.03514993190765381,
                0.23118305206298828
            ],
            "min" : [
                0.007127523422241211,
                0.0009857416152954102,
                -0.23118305206298828
            ],
            "type" : "VEC3"
        },
        {
            "bufferView" : 9,
            "componentType" : 5126,
            "count" : 610,
            "type" : "VEC2"
        },
        {
            "bufferView" : 10,
            "componentType" : 5126,
            "count" : 610,
            "type" : "VEC3"
        },
        {
            "bufferView" : 11,
            "componentType" : 5123,
            "count" : 2004,
            "type" : "SCALAR"
        },
        {
            "bufferView" : 12,
            "componentType" : 5126,
            "count" : 543,
            "max" : [
                0.010503850877285004,
                0.0030459125991910696,
                0.09714064747095108
            ],
            "min" : [
                -0.026905398815870285,
                -0.03575344756245613,
                -0.10165369510650635
            ],
            "type" : "VEC3"
        },
        {
            "bufferView" : 13,
            "componentType" : 5126,
            "count" : 543,
            "type" : "VEC2"
        },
        {
            "bufferView" : 14,
            "componentType" : 5126,
            "count" : 543,
            "type" : "VEC3"
        },
        {
            "bufferView" : 15,
            "componentType" : 5123,
            "count" : 2712,
            "type" : "SCALAR"
        },
        {
            "bufferView" : 16,
            "componentType" : 5126,
            "count" : 173,
            "max" : [
                0.02495599165558815,
                0.008271867409348488,
                0.02495599165558815
            ],
            "min" : [
                -0.02495599165558815,
                -0.0033795894123613834,
                -0.02495599165558815
            ],
            "type" : "VEC3"
        },
        {
            "bufferView" : 17,
            "componentType" : 5126,
            "count" : 173,
            "type" : "VEC2"
        },
        {
            "bufferView" : 18,
            "componentType" : 5126,
            "count" : 173,
            "type" : "VEC3"
        },
        {
            "bufferView" : 19,
            "componentType" : 5123,
            "count" : 750,
            "type" : "SCALAR"
        },
        {
            "bufferView" : 20,
            "componentType" : 5126,
            "count" : 339,
            "max" : [
                0.03302436321973801,
                0.003306865692138672,
                0.03302436321973801
            ],
            "min" : [
                -0.03302436321973801,
                -0.0033069252967834473,
                -0.03302436321973801
            ],
            "type" : "VEC3"
        },
        {
            "bufferView" : 21,
            "componentType" : 5126,
            "count" : 339,
            "type" : "VEC2"
        },
        {
            "bufferView" : 22,
            "componentType" : 5126,
            "count" : 339,
            "type" : "VEC3"
        },
        {
            "bufferView" : 23,
            "componentType" : 5123,
            "count" : 1416,
            "type" : "SCALAR"
        },
        {
            "bufferView" : 24,
            "componentType" : 5126,
            "count" : 543,
            "max" : [
                0.07851497828960419,
                0.2808890640735626,
                0.2515258491039276
            ],
            "min" : [
                -0.07851497828960419,
                -0.2808890640735626,
                -0.2515258491039276
            ],
            "type" : "VEC3"
        },
        {
            "bufferView" : 25,
            "componentType" : 5126,
            "count" : 543,
            "type" : "VEC2"
        },
        {
            "bufferView" : 26,
            "componentType" : 5126,
            "count" : 543,
            "type" : "VEC3"
        },
        {
            "bufferView" : 27,
            "componentType" : 5123,
            "count" : 1860,
            "type" : "SCALAR"
        },
        {
            "bufferView" : 28,
            "componentType" : 5126,
            "count" : 2346,
            "max" : [
                0.5786629319190979,
                -0.036078814417123795,
                0.23118305206298828
            ],
            "min" : [
                -0.19356438517570496,
                -0.6404010653495789,
                -0.23118305206298828
            ],
            "type" : "VEC3"
        },
        {
            "bufferView" : 29,
            "componentType" : 5126,
            "count" : 2346,
            "type" : "VEC2"
        },
        {
            "bufferView" : 30,
            "componentType" : 5126,
            "count" : 2346,
            "type" : "VEC3"
        },
        {
            "bufferView" : 31,
            "componentType" : 5123,
            "count" : 9708,
            "type" : "SCALAR"
        }
    ],
    "bufferViews" : [
        {
            "buffer" : 0,
            "byteLength" : 5544,
            "byteOffset" : 0,
            "target" : 34962
        },
        {
            "buffer" : 0,
            "byteLength" : 3696,
            "byteOffset" : 5544,
            "target" : 34962
        },
        {
            "buffer" : 0,
            "byteLength" : 5544,
            "byteOffset" : 9240,
            "target" : 34962
        },
        {
            "buffer" : 0,
            "byteLength" : 4032,
            "byteOffset" : 14784,
            "target" : 34963
        },
        {
            "buffer" : 0,
            "byteLength" : 14844,
            "byteOffset" : 18816,
            "target" : 34962
        },
        {
            "buffer" : 0,
            "byteLength" : 9896,
            "byteOffset" : 33660,
            "target" : 34962
        },
        {
            "buffer" : 0,
            "byteLength" : 14844,
            "byteOffset" : 43556,
            "target" : 34962
        },
        {
            "buffer" : 0,
            "byteLength" : 6912,
            "byteOffset" : 58400,
            "target" : 34963
        },
        {
            "buffer" : 0,
            "byteLength" : 7320,
            "byteOffset" : 65312,
            "target" : 34962
        },
        {
            "buffer" : 0,
            "byteLength" : 4880,
            "byteOffset" : 72632,
            "target" : 34962
        },
        {
            "buffer" : 0,
            "byteLength" : 7320,
            "byteOffset" : 77512,
            "target" : 34962
        },
        {
            "buffer" : 0,
            "byteLength" : 4008,
            "byteOffset" : 84832,
            "target" : 34963
        },
        {
            "buffer" : 0,
            "byteLength" : 6516,
            "byteOffset" : 88840,
            "target" : 34962
        },
        {
            "buffer" : 0,
            "byteLength" : 4344,
            "byteOffset" : 95356,
            "target" : 34962
        },
        {
            "buffer" : 0,
            "byteLength" : 6516,
            "byteOffset" : 99700,
            "target" : 34962
        },
        {
            "buffer" : 0,
            "byteLength" : 5424,
            "byteOffset" : 106216,
            "target" : 34963
        },
        {
            "buffer" : 0,
            "byteLength" : 2076,
            "byteOffset" : 111640,
            "target" : 34962
        },
        {
            "buffer" : 0,
            "byteLength" : 1384,
            "byteOffset" : 113716,
            "target" : 34962
        },
        {
            "buffer" : 0,
            "byteLength" : 2076,
            "byteOffset" : 115100,
            "target" : 34962
        },
        {
            "buffer" : 0,
            "byteLength" : 1500,
            "byteOffset" : 117176,
            "target" : 34963
        },
        {
            "buffer" : 0,
            "byteLength" : 4068,
            "byteOffset" : 118676,
            "target" : 34962
        },
        {
            "buffer" : 0,
            "byteLength" : 2712,
            "byteOffset" : 122744,
            "target" : 34962
        },
        {
            "buffer" : 0,
            "byteLength" : 4068,
            "byteOffset" : 125456,
            "target" : 34962
        },
        {
            "buffer" : 0,
            "byteLength" : 2832,
            "byteOffset" : 129524,
            "target" : 34963
        },
        {
            "buffer" : 0,
            "byteLength" : 6516,
            "byteOffset" : 132356,
            "target" : 34962
        },
        {
            "buffer" : 0,
            "byteLength" : 4344,
            "byteOffset" : 138872,
            "target" : 34962
        },
        {
            "buffer" : 0,
            "byteLength" : 6516,
            "byteOffset" : 143216,
            "target" : 34962
        },
        {
            "buffer" : 0,
            "byteLength" : 3720,
            "byteOffset" : 149732,
            "target" : 34963
        },
        {
            "buffer" : 0,
            "byteLength" : 28152,
            "byteOffset" : 153452,
            "target" : 34962
        },
        {
            "buffer" : 0,
            "byteLength" : 18768,
            "byteOffset" : 181604,
            "target" : 34962
        },
        {
            "buffer" : 0,
            "byteLength" : 28152,
            "byteOffset" : 200372,
            "target" : 34962
        },
        {
            "buffer" : 0,
            "byteLength" : 19416,
            "byteOffset" : 228524,
            "target" : 34963
        }
    ],
    "buffers" : [
        {
            "byteLength" : 247940,
            "uri" : "data:application/octet-stream;base64,"
        }
    ]
}
