{
    "asset" : {
        "generator" : "Khronos glTF Blender I/O v3.4.50",
        "version" : "2.0"
    },
    "scene" : 0,
    "scenes" : [
        {
            "name" : "Scene",
            "nodes" : [
                3
            ]
        }
    ],
    "nodes" : [
        {
            "mesh" : 0,
            "name" : "balcony_handrail",
            "translation" : [
                3.2650609016418457,
                0.75,
                -3.202073097229004
            ]
        },
        {
            "mesh" : 1,
            "name" : "first_floor_walls-col",
            "translation" : [
                6.637929439544678,
                1.4249999523162842,
                2.1104273796081543
            ]
        },
        {
            "mesh" : 2,
            "name" : "secret_lid",
            "translation" : [
                10.41382122039795,
                0.6999999284744263,
                -1.8270728588104248
            ]
        },
        {
            "children" : [
                0,
                1,
                2
            ],
            "name" : "first_floor_exterior"
        }
    ],
    "meshes" : [
        {
            "name" : "Plane.021",
            "primitives" : [
                {
                    "attributes" : {
                        "POSITION" : 0,
                        "TEXCOORD_0" : 1,
                        "NORMAL" : 2
                    },
                    "indices" : 3
                }
            ]
        },
        {
            "name" : "Plane.016",
            "primitives" : [
                {
                    "attributes" : {
                        "POSITION" : 4,
                        "TEXCOORD_0" : 5,
                        "TEXCOORD_1" : 6,
                        "NORMAL" : 7
                    },
                    "indices" : 8
                },
                {
                    "attributes" : {
                        "POSITION" : 9,
                        "TEXCOORD_0" : 10,
                        "TEXCOORD_1" : 11,
                        "NORMAL" : 12
                    },
                    "indices" : 13
                }
            ]
        },
        {
            "name" : "Plane.233",
            "primitives" : [
                {
                    "attributes" : {
                        "POSITION" : 14,
                        "TEXCOORD_0" : 15,
                        "TEXCOORD_1" : 16,
                        "NORMAL" : 17
                    },
                    "indices" : 18
                }
            ]
        }
    ],
    "accessors" : [
        {
            "bufferView" : 0,
            "componentType" : 5126,
            "count" : 1369,
            "max" : [
                4.435368061065674,
                0.5,
                1.375
            ],
            "min" : [
                -4.435367584228516,
                -0.5,
                -1.375
            ],
            "type" : "VEC3"
        },
        {
            "bufferView" : 1,
            "componentType" : 5126,
            "count" : 1369,
            "type" : "VEC2"
        },
        {
            "bufferView" : 2,
            "componentType" : 5126,
            "count" : 1369,
            "type" : "VEC3"
        },
        {
            "bufferView" : 3,
            "componentType" : 5123,
            "count" : 2112,
            "type" : "SCALAR"
        },
        {
            "bufferView" : 4,
            "componentType" : 5126,
            "count" : 1053,
            "max" : [
                7.812500476837158,
                1.4249999523162842,
                6.687500476837158
            ],
            "min" : [
                -7.812500476837158,
                -1.4249999523162842,
                -6.687500476837158
            ],
            "type" : "VEC3"
        },
        {
            "bufferView" : 5,
            "componentType" : 5126,
            "count" : 1053,
            "type" : "VEC2"
        },
        {
            "bufferView" : 6,
            "componentType" : 5126,
            "count" : 1053,
            "type" : "VEC2"
        },
        {
            "bufferView" : 7,
            "componentType" : 5126,
            "count" : 1053,
            "type" : "VEC3"
        },
        {
            "bufferView" : 8,
            "componentType" : 5123,
            "count" : 1638,
            "type" : "SCALAR"
        },
        {
            "bufferView" : 9,
            "componentType" : 5126,
            "count" : 52,
            "max" : [
                1.0624995231628418,
                -1.1749999523162842,
                6.687500476837158
            ],
            "min" : [
                -7.812500476837158,
                -1.1749999523162842,
                -6.687500476837158
            ],
            "type" : "VEC3"
        },
        {
            "bufferView" : 10,
            "componentType" : 5126,
            "count" : 52,
            "type" : "VEC2"
        },
        {
            "bufferView" : 11,
            "componentType" : 5126,
            "count" : 52,
            "type" : "VEC2"
        },
        {
            "bufferView" : 12,
            "componentType" : 5126,
            "count" : 52,
            "type" : "VEC3"
        },
        {
            "bufferView" : 13,
            "componentType" : 5123,
            "count" : 114,
            "type" : "SCALAR"
        },
        {
            "bufferView" : 14,
            "componentType" : 5126,
            "count" : 36,
            "max" : [
                0.3764963150024414,
                0.21719634532928467,
                0.07000001519918442
            ],
            "min" : [
                -0.3764963150024414,
                -0.21719634532928467,
                -1.4151368077364168e-08
            ],
            "type" : "VEC3"
        },
        {
            "bufferView" : 15,
            "componentType" : 5126,
            "count" : 36,
            "type" : "VEC2"
        },
        {
            "bufferView" : 16,
            "componentType" : 5126,
            "count" : 36,
            "type" : "VEC2"
        },
        {
            "bufferView" : 17,
            "componentType" : 5126,
            "count" : 36,
            "type" : "VEC3"
        },
        {
            "bufferView" : 18,
            "componentType" : 5123,
            "count" : 36,
            "type" : "SCALAR"
        }
    ],
    "bufferViews" : [
        {
            "buffer" : 0,
            "byteLength" : 16428,
            "byteOffset" : 0,
            "target" : 34962
        },
        {
            "buffer" : 0,
            "byteLength" : 10952,
            "byteOffset" : 16428,
            "target" : 34962
        },
        {
            "buffer" : 0,
            "byteLength" : 16428,
            "byteOffset" : 27380,
            "target" : 34962
        },
        {
            "buffer" : 0,
            "byteLength" : 4224,
            "byteOffset" : 43808,
            "target" : 34963
        },
        {
            "buffer" : 0,
            "byteLength" : 12636,
            "byteOffset" : 48032,
            "target" : 34962
        },
        {
            "buffer" : 0,
            "byteLength" : 8424,
            "byteOffset" : 60668,
            "target" : 34962
        },
        {
            "buffer" : 0,
            "byteLength" : 8424,
            "byteOffset" : 69092,
            "target" : 34962
        },
        {
            "buffer" : 0,
            "byteLength" : 12636,
            "byteOffset" : 77516,
            "target" : 34962
        },
        {
            "buffer" : 0,
            "byteLength" : 3276,
            "byteOffset" : 90152,
            "target" : 34963
        },
        {
            "buffer" : 0,
            "byteLength" : 624,
            "byteOffset" : 93428,
            "target" : 34962
        },
        {
            "buffer" : 0,
            "byteLength" : 416,
            "byteOffset" : 94052,
            "target" : 34962
        },
        {
            "buffer" : 0,
            "byteLength" : 416,
            "byteOffset" : 94468,
            "target" : 34962
        },
        {
            "buffer" : 0,
            "byteLength" : 624,
            "byteOffset" : 94884,
            "target" : 34962
        },
        {
            "buffer" : 0,
            "byteLength" : 228,
            "byteOffset" : 95508,
            "target" : 34963
        },
        {
            "buffer" : 0,
            "byteLength" : 432,
            "byteOffset" : 95736,
            "target" : 34962
        },
        {
            "buffer" : 0,
            "byteLength" : 288,
            "byteOffset" : 96168,
            "target" : 34962
        },
        {
            "buffer" : 0,
            "byteLength" : 288,
            "byteOffset" : 96456,
            "target" : 34962
        },
        {
            "buffer" : 0,
            "byteLength" : 432,
            "byteOffset" : 96744,
            "target" : 34962
        },
        {
            "buffer" : 0,
            "byteLength" : 72,
            "byteOffset" : 97176,
            "target" : 34963
        }
    ],
    "buffers" : [
        {
            "byteLength" : 97248,
            "uri" : "data:application/octet-stream;base64,"
        }
    ]
}
