{
    "asset" : {
        "generator" : "Khronos glTF Blender I/O v3.4.49",
        "version" : "2.0"
    },
    "scene" : 0,
    "scenes" : [
        {
            "name" : "Scene",
            "nodes" : [
                2
            ]
        }
    ],
    "nodes" : [
        {
            "mesh" : 0,
            "name" : "hoja_inferior",
            "translation" : [
                0.011117935180664062,
                -0.6284160614013672,
                -0.04856852442026138
            ]
        },
        {
            "children" : [
                0
            ],
            "mesh" : 1,
            "name" : "hoja_superior",
            "translation" : [
                9.862798690795898,
                -0.3853731155395508,
                0.15000027418136597
            ]
        },
        {
            "children" : [
                1
            ],
            "mesh" : 2,
            "name" : "puerta_garaje"
        }
    ],
    "meshes" : [
        {
            "name" : "Plane.086",
            "primitives" : [
                {
                    "attributes" : {
                        "POSITION" : 0,
                        "TEXCOORD_0" : 1,
                        "NORMAL" : 2
                    },
                    "indices" : 3
                },
                {
                    "attributes" : {
                        "POSITION" : 4,
                        "TEXCOORD_0" : 5,
                        "NORMAL" : 6
                    },
                    "indices" : 7
                }
            ]
        },
        {
            "name" : "Plane.088",
            "primitives" : [
                {
                    "attributes" : {
                        "POSITION" : 8,
                        "TEXCOORD_0" : 9,
                        "NORMAL" : 10
                    },
                    "indices" : 11
                }
            ]
        },
        {
            "name" : "Plane.085",
            "primitives" : [
                {
                    "attributes" : {
                        "POSITION" : 12,
                        "TEXCOORD_0" : 13,
                        "NORMAL" : 14
                    },
                    "indices" : 15
                }
            ]
        }
    ],
    "accessors" : [
        {
            "bufferView" : 0,
            "componentType" : 5126,
            "count" : 1552,
            "max" : [
                1.4376678466796875,
                0.011342763900756836,
                0.09713705629110336
            ],
            "min" : [
                -1.459904670715332,
                -1.5292506217956543,
                -0.011342830955982208
            ],
            "type" : "VEC3"
        },
        {
            "bufferView" : 1,
            "componentType" : 5126,
            "count" : 1552,
            "type" : "VEC2"
        },
        {
            "bufferView" : 2,
            "componentType" : 5126,
            "count" : 1552,
            "type" : "VEC3"
        },
        {
            "bufferView" : 3,
            "componentType" : 5123,
            "count" : 3876,
            "type" : "SCALAR"
        },
        {
            "bufferView" : 4,
            "componentType" : 5126,
            "count" : 371,
            "max" : [
                0.12058639526367188,
                -0.23657464981079102,
                0.010121800005435944
            ],
            "min" : [
                -0.03183174133300781,
                -0.3889927864074707,
                -0.006521344184875488
            ],
            "type" : "VEC3"
        },
        {
            "bufferView" : 5,
            "componentType" : 5126,
            "count" : 371,
            "type" : "VEC2"
        },
        {
            "bufferView" : 6,
            "componentType" : 5126,
            "count" : 371,
            "type" : "VEC3"
        },
        {
            "bufferView" : 7,
            "componentType" : 5123,
            "count" : 1536,
            "type" : "SCALAR"
        },
        {
            "bufferView" : 8,
            "componentType" : 5126,
            "count" : 312,
            "max" : [
                1.4487857818603516,
                0,
                0.04856853187084198
            ],
            "min" : [
                -1.448786735534668,
                -0.6232239007949829,
                -0.04856852442026138
            ],
            "type" : "VEC3"
        },
        {
            "bufferView" : 9,
            "componentType" : 5126,
            "count" : 312,
            "type" : "VEC2"
        },
        {
            "bufferView" : 10,
            "componentType" : 5126,
            "count" : 312,
            "type" : "VEC3"
        },
        {
            "bufferView" : 11,
            "componentType" : 5123,
            "count" : 708,
            "type" : "SCALAR"
        },
        {
            "bufferView" : 12,
            "componentType" : 5126,
            "count" : 48,
            "max" : [
                11.362817764282227,
                -0.34604156017303467,
                0.20028568804264069
            ],
            "min" : [
                8.362642288208008,
                -2.5430400371551514,
                0.09971486777067184
            ],
            "type" : "VEC3"
        },
        {
            "bufferView" : 13,
            "componentType" : 5126,
            "count" : 48,
            "type" : "VEC2"
        },
        {
            "bufferView" : 14,
            "componentType" : 5126,
            "count" : 48,
            "type" : "VEC3"
        },
        {
            "bufferView" : 15,
            "componentType" : 5123,
            "count" : 72,
            "type" : "SCALAR"
        }
    ],
    "bufferViews" : [
        {
            "buffer" : 0,
            "byteLength" : 18624,
            "byteOffset" : 0,
            "target" : 34962
        },
        {
            "buffer" : 0,
            "byteLength" : 12416,
            "byteOffset" : 18624,
            "target" : 34962
        },
        {
            "buffer" : 0,
            "byteLength" : 18624,
            "byteOffset" : 31040,
            "target" : 34962
        },
        {
            "buffer" : 0,
            "byteLength" : 7752,
            "byteOffset" : 49664,
            "target" : 34963
        },
        {
            "buffer" : 0,
            "byteLength" : 4452,
            "byteOffset" : 57416,
            "target" : 34962
        },
        {
            "buffer" : 0,
            "byteLength" : 2968,
            "byteOffset" : 61868,
            "target" : 34962
        },
        {
            "buffer" : 0,
            "byteLength" : 4452,
            "byteOffset" : 64836,
            "target" : 34962
        },
        {
            "buffer" : 0,
            "byteLength" : 3072,
            "byteOffset" : 69288,
            "target" : 34963
        },
        {
            "buffer" : 0,
            "byteLength" : 3744,
            "byteOffset" : 72360,
            "target" : 34962
        },
        {
            "buffer" : 0,
            "byteLength" : 2496,
            "byteOffset" : 76104,
            "target" : 34962
        },
        {
            "buffer" : 0,
            "byteLength" : 3744,
            "byteOffset" : 78600,
            "target" : 34962
        },
        {
            "buffer" : 0,
            "byteLength" : 1416,
            "byteOffset" : 82344,
            "target" : 34963
        },
        {
            "buffer" : 0,
            "byteLength" : 576,
            "byteOffset" : 83760,
            "target" : 34962
        },
        {
            "buffer" : 0,
            "byteLength" : 384,
            "byteOffset" : 84336,
            "target" : 34962
        },
        {
            "buffer" : 0,
            "byteLength" : 576,
            "byteOffset" : 84720,
            "target" : 34962
        },
        {
            "buffer" : 0,
            "byteLength" : 144,
            "byteOffset" : 85296,
            "target" : 34963
        }
    ],
    "buffers" : [
        {
            "byteLength" : 85440,
            "uri" : "data:application/octet-stream;base64,"
        }
    ]
}
