{
    "asset" : {
        "generator" : "Khronos glTF Blender I/O v3.4.49",
        "version" : "2.0"
    },
    "scene" : 0,
    "scenes" : [
        {
            "name" : "Scene",
            "nodes" : [
                3
            ]
        }
    ],
    "nodes" : [
        {
            "mesh" : 0,
            "name" : "window_left.072",
            "translation" : [
                -0.02704143524169922,
                1.0499999523162842,
                0.3481033146381378
            ]
        },
        {
            "mesh" : 1,
            "name" : "window_left.073",
            "translation" : [
                -0.02788543701171875,
                1.0541014671325684,
                0.7690751552581787
            ]
        },
        {
            "children" : [
                0,
                1
            ],
            "mesh" : 2,
            "name" : "window_left.071",
            "translation" : [
                6.949999809265137,
                -2.5,
                0.412396639585495
            ]
        },
        {
            "children" : [
                2
            ],
            "name" : "puerta_pequena_garaje"
        }
    ],
    "meshes" : [
        {
            "name" : "Plane.209",
            "primitives" : [
                {
                    "attributes" : {
                        "POSITION" : 0,
                        "TEXCOORD_0" : 1,
                        "TEXCOORD_1" : 2,
                        "NORMAL" : 3
                    },
                    "indices" : 4
                }
            ]
        },
        {
            "name" : "Plane.210",
            "primitives" : [
                {
                    "attributes" : {
                        "POSITION" : 5,
                        "TEXCOORD_0" : 6,
                        "TEXCOORD_1" : 7,
                        "NORMAL" : 8
                    },
                    "indices" : 9
                },
                {
                    "attributes" : {
                        "POSITION" : 10,
                        "TEXCOORD_0" : 11,
                        "TEXCOORD_1" : 12,
                        "NORMAL" : 13
                    },
                    "indices" : 14
                }
            ]
        },
        {
            "name" : "Plane.208",
            "primitives" : [
                {
                    "attributes" : {
                        "POSITION" : 15,
                        "TEXCOORD_0" : 16,
                        "TEXCOORD_1" : 17,
                        "NORMAL" : 18
                    },
                    "indices" : 19
                },
                {
                    "attributes" : {
                        "POSITION" : 20,
                        "TEXCOORD_0" : 21,
                        "TEXCOORD_1" : 22,
                        "NORMAL" : 23
                    },
                    "indices" : 24
                }
            ]
        }
    ],
    "accessors" : [
        {
            "bufferView" : 0,
            "componentType" : 5126,
            "count" : 8,
            "max" : [
                0.017041867598891258,
                0.9951515197753906,
                0.3934086263179779
            ],
            "min" : [
                -0.017041856423020363,
                -0.9951515197753906,
                -0.2967546880245209
            ],
            "type" : "VEC3"
        },
        {
            "bufferView" : 1,
            "componentType" : 5126,
            "count" : 8,
            "type" : "VEC2"
        },
        {
            "bufferView" : 2,
            "componentType" : 5126,
            "count" : 8,
            "type" : "VEC2"
        },
        {
            "bufferView" : 3,
            "componentType" : 5126,
            "count" : 8,
            "type" : "VEC3"
        },
        {
            "bufferView" : 4,
            "componentType" : 5123,
            "count" : 12,
            "type" : "SCALAR"
        },
        {
            "bufferView" : 5,
            "componentType" : 5126,
            "count" : 1081,
            "max" : [
                0.08493627607822418,
                0.013930082321166992,
                0.013930129818618298
            ],
            "min" : [
                -0.08493627607822418,
                -0.013930082321166992,
                -0.13594397902488708
            ],
            "type" : "VEC3"
        },
        {
            "bufferView" : 6,
            "componentType" : 5126,
            "count" : 1081,
            "type" : "VEC2"
        },
        {
            "bufferView" : 7,
            "componentType" : 5126,
            "count" : 1081,
            "type" : "VEC2"
        },
        {
            "bufferView" : 8,
            "componentType" : 5126,
            "count" : 1081,
            "type" : "VEC3"
        },
        {
            "bufferView" : 9,
            "componentType" : 5123,
            "count" : 4140,
            "type" : "SCALAR"
        },
        {
            "bufferView" : 10,
            "componentType" : 5126,
            "count" : 64,
            "max" : [
                0.029531003907322884,
                0.009672736749053001,
                0.009672763757407665
            ],
            "min" : [
                -0.029531002044677734,
                -0.009672736749053001,
                -0.009672711603343487
            ],
            "type" : "VEC3"
        },
        {
            "bufferView" : 11,
            "componentType" : 5126,
            "count" : 64,
            "type" : "VEC2"
        },
        {
            "bufferView" : 12,
            "componentType" : 5126,
            "count" : 64,
            "type" : "VEC2"
        },
        {
            "bufferView" : 13,
            "componentType" : 5126,
            "count" : 64,
            "type" : "VEC3"
        },
        {
            "bufferView" : 14,
            "componentType" : 5123,
            "count" : 144,
            "type" : "SCALAR"
        },
        {
            "bufferView" : 15,
            "componentType" : 5126,
            "count" : 104,
            "max" : [
                2.2008360645031644e-07,
                2.0999999046325684,
                0.7964997291564941
            ],
            "min" : [
                -0.05408389866352081,
                0,
                -0.003499880898743868
            ],
            "type" : "VEC3"
        },
        {
            "bufferView" : 16,
            "componentType" : 5126,
            "count" : 104,
            "type" : "VEC2"
        },
        {
            "bufferView" : 17,
            "componentType" : 5126,
            "count" : 104,
            "type" : "VEC2"
        },
        {
            "bufferView" : 18,
            "componentType" : 5126,
            "count" : 104,
            "type" : "VEC3"
        },
        {
            "bufferView" : 19,
            "componentType" : 5123,
            "count" : 240,
            "type" : "SCALAR"
        },
        {
            "bufferView" : 20,
            "componentType" : 5126,
            "count" : 44,
            "max" : [
                -0.00685383565723896,
                1.1098299026489258,
                0.8001670241355896
            ],
            "min" : [
                -0.04643275961279869,
                1.0001342296600342,
                0.786153256893158
            ],
            "type" : "VEC3"
        },
        {
            "bufferView" : 21,
            "componentType" : 5126,
            "count" : 44,
            "type" : "VEC2"
        },
        {
            "bufferView" : 22,
            "componentType" : 5126,
            "count" : 44,
            "type" : "VEC2"
        },
        {
            "bufferView" : 23,
            "componentType" : 5126,
            "count" : 44,
            "type" : "VEC3"
        },
        {
            "bufferView" : 24,
            "componentType" : 5123,
            "count" : 78,
            "type" : "SCALAR"
        }
    ],
    "bufferViews" : [
        {
            "buffer" : 0,
            "byteLength" : 96,
            "byteOffset" : 0,
            "target" : 34962
        },
        {
            "buffer" : 0,
            "byteLength" : 64,
            "byteOffset" : 96,
            "target" : 34962
        },
        {
            "buffer" : 0,
            "byteLength" : 64,
            "byteOffset" : 160,
            "target" : 34962
        },
        {
            "buffer" : 0,
            "byteLength" : 96,
            "byteOffset" : 224,
            "target" : 34962
        },
        {
            "buffer" : 0,
            "byteLength" : 24,
            "byteOffset" : 320,
            "target" : 34963
        },
        {
            "buffer" : 0,
            "byteLength" : 12972,
            "byteOffset" : 344,
            "target" : 34962
        },
        {
            "buffer" : 0,
            "byteLength" : 8648,
            "byteOffset" : 13316,
            "target" : 34962
        },
        {
            "buffer" : 0,
            "byteLength" : 8648,
            "byteOffset" : 21964,
            "target" : 34962
        },
        {
            "buffer" : 0,
            "byteLength" : 12972,
            "byteOffset" : 30612,
            "target" : 34962
        },
        {
            "buffer" : 0,
            "byteLength" : 8280,
            "byteOffset" : 43584,
            "target" : 34963
        },
        {
            "buffer" : 0,
            "byteLength" : 768,
            "byteOffset" : 51864,
            "target" : 34962
        },
        {
            "buffer" : 0,
            "byteLength" : 512,
            "byteOffset" : 52632,
            "target" : 34962
        },
        {
            "buffer" : 0,
            "byteLength" : 512,
            "byteOffset" : 53144,
            "target" : 34962
        },
        {
            "buffer" : 0,
            "byteLength" : 768,
            "byteOffset" : 53656,
            "target" : 34962
        },
        {
            "buffer" : 0,
            "byteLength" : 288,
            "byteOffset" : 54424,
            "target" : 34963
        },
        {
            "buffer" : 0,
            "byteLength" : 1248,
            "byteOffset" : 54712,
            "target" : 34962
        },
        {
            "buffer" : 0,
            "byteLength" : 832,
            "byteOffset" : 55960,
            "target" : 34962
        },
        {
            "buffer" : 0,
            "byteLength" : 832,
            "byteOffset" : 56792,
            "target" : 34962
        },
        {
            "buffer" : 0,
            "byteLength" : 1248,
            "byteOffset" : 57624,
            "target" : 34962
        },
        {
            "buffer" : 0,
            "byteLength" : 480,
            "byteOffset" : 58872,
            "target" : 34963
        },
        {
            "buffer" : 0,
            "byteLength" : 528,
            "byteOffset" : 59352,
            "target" : 34962
        },
        {
            "buffer" : 0,
            "byteLength" : 352,
            "byteOffset" : 59880,
            "target" : 34962
        },
        {
            "buffer" : 0,
            "byteLength" : 352,
            "byteOffset" : 60232,
            "target" : 34962
        },
        {
            "buffer" : 0,
            "byteLength" : 528,
            "byteOffset" : 60584,
            "target" : 34962
        },
        {
            "buffer" : 0,
            "byteLength" : 156,
            "byteOffset" : 61112,
            "target" : 34963
        }
    ],
    "buffers" : [
        {
            "byteLength" : 61268,
            "uri" : "data:application/octet-stream;base64,"
        }
    ]
}
