{
    "asset" : {
        "generator" : "Khronos glTF Blender I/O v3.4.49",
        "version" : "2.0"
    },
    "scene" : 0,
    "scenes" : [
        {
            "name" : "Scene",
            "nodes" : [
                2
            ]
        }
    ],
    "nodes" : [
        {
            "mesh" : 0,
            "name" : "mango.002",
            "translation" : [
                -0.7563567161560059,
                0.9661221504211426,
                0.04990100860595703
            ]
        },
        {
            "children" : [
                0
            ],
            "mesh" : 1,
            "name" : "puerta_patio",
            "translation" : [
                -1.0200586318969727,
                0.33166682720184326,
                15.119608879089355
            ]
        },
        {
            "children" : [
                1
            ],
            "name" : "puerta_patio.001"
        }
    ],
    "meshes" : [
        {
            "name" : "Cube.023",
            "primitives" : [
                {
                    "attributes" : {
                        "POSITION" : 0,
                        "TEXCOORD_0" : 1,
                        "TEXCOORD_1" : 2,
                        "NORMAL" : 3
                    },
                    "indices" : 4
                }
            ]
        },
        {
            "name" : "Cube.018",
            "primitives" : [
                {
                    "attributes" : {
                        "POSITION" : 5,
                        "TEXCOORD_0" : 6,
                        "TEXCOORD_1" : 7,
                        "NORMAL" : 8
                    },
                    "indices" : 9
                }
            ]
        }
    ],
    "accessors" : [
        {
            "bufferView" : 0,
            "componentType" : 5126,
            "count" : 1802,
            "max" : [
                0.14448252320289612,
                0.019118905067443848,
                0.1301288604736328
            ],
            "min" : [
                -0.01911938190460205,
                -0.01938086748123169,
                -0.130126953125
            ],
            "type" : "VEC3"
        },
        {
            "bufferView" : 1,
            "componentType" : 5126,
            "count" : 1802,
            "type" : "VEC2"
        },
        {
            "bufferView" : 2,
            "componentType" : 5126,
            "count" : 1802,
            "type" : "VEC2"
        },
        {
            "bufferView" : 3,
            "componentType" : 5126,
            "count" : 1802,
            "type" : "VEC3"
        },
        {
            "bufferView" : 4,
            "componentType" : 5123,
            "count" : 6012,
            "type" : "SCALAR"
        },
        {
            "bufferView" : 5,
            "componentType" : 5126,
            "count" : 865,
            "max" : [
                0,
                1.4887946844100952,
                0.06542587280273438
            ],
            "min" : [
                -0.7861953973770142,
                0,
                0
            ],
            "type" : "VEC3"
        },
        {
            "bufferView" : 6,
            "componentType" : 5126,
            "count" : 865,
            "type" : "VEC2"
        },
        {
            "bufferView" : 7,
            "componentType" : 5126,
            "count" : 865,
            "type" : "VEC2"
        },
        {
            "bufferView" : 8,
            "componentType" : 5126,
            "count" : 865,
            "type" : "VEC3"
        },
        {
            "bufferView" : 9,
            "componentType" : 5123,
            "count" : 1440,
            "type" : "SCALAR"
        }
    ],
    "bufferViews" : [
        {
            "buffer" : 0,
            "byteLength" : 21624,
            "byteOffset" : 0,
            "target" : 34962
        },
        {
            "buffer" : 0,
            "byteLength" : 14416,
            "byteOffset" : 21624,
            "target" : 34962
        },
        {
            "buffer" : 0,
            "byteLength" : 14416,
            "byteOffset" : 36040,
            "target" : 34962
        },
        {
            "buffer" : 0,
            "byteLength" : 21624,
            "byteOffset" : 50456,
            "target" : 34962
        },
        {
            "buffer" : 0,
            "byteLength" : 12024,
            "byteOffset" : 72080,
            "target" : 34963
        },
        {
            "buffer" : 0,
            "byteLength" : 10380,
            "byteOffset" : 84104,
            "target" : 34962
        },
        {
            "buffer" : 0,
            "byteLength" : 6920,
            "byteOffset" : 94484,
            "target" : 34962
        },
        {
            "buffer" : 0,
            "byteLength" : 6920,
            "byteOffset" : 101404,
            "target" : 34962
        },
        {
            "buffer" : 0,
            "byteLength" : 10380,
            "byteOffset" : 108324,
            "target" : 34962
        },
        {
            "buffer" : 0,
            "byteLength" : 2880,
            "byteOffset" : 118704,
            "target" : 34963
        }
    ],
    "buffers" : [
        {
            "byteLength" : 121584,
            "uri" : "data:application/octet-stream;base64,"
        }
    ]
}
