{
    "asset" : {
        "generator" : "Khronos glTF Blender I/O v3.4.49",
        "version" : "2.0"
    },
    "scene" : 0,
    "scenes" : [
        {
            "name" : "Scene",
            "nodes" : [
                3
            ]
        }
    ],
    "nodes" : [
        {
            "mesh" : 0,
            "name" : "mango",
            "translation" : [
                -1.7674798965454102,
                1.2845044136047363,
                0.03271198272705078
            ]
        },
        {
            "children" : [
                0
            ],
            "mesh" : 1,
            "name" : "hoja_der",
            "translation" : [
                16.100852966308594,
                0.9767246246337891,
                15.136797904968262
            ]
        },
        {
            "mesh" : 2,
            "name" : "hoja_izq",
            "translation" : [
                12.506194114685059,
                0.9767246246337891,
                15.136797904968262
            ]
        },
        {
            "children" : [
                1,
                2
            ],
            "name" : "puerta_rampa"
        }
    ],
    "meshes" : [
        {
            "name" : "Cube.017",
            "primitives" : [
                {
                    "attributes" : {
                        "POSITION" : 0,
                        "TEXCOORD_0" : 1,
                        "TEXCOORD_1" : 2,
                        "NORMAL" : 3
                    },
                    "indices" : 4
                }
            ]
        },
        {
            "name" : "Cube.011",
            "primitives" : [
                {
                    "attributes" : {
                        "POSITION" : 5,
                        "TEXCOORD_0" : 6,
                        "TEXCOORD_1" : 7,
                        "NORMAL" : 8
                    },
                    "indices" : 9
                }
            ]
        },
        {
            "name" : "Cube.004",
            "primitives" : [
                {
                    "attributes" : {
                        "POSITION" : 10,
                        "TEXCOORD_0" : 11,
                        "TEXCOORD_1" : 12,
                        "NORMAL" : 13
                    },
                    "indices" : 14
                }
            ]
        }
    ],
    "accessors" : [
        {
            "bufferView" : 0,
            "componentType" : 5126,
            "count" : 1802,
            "max" : [
                0.14448252320289612,
                0.019118905067443848,
                0.1301288604736328
            ],
            "min" : [
                -0.01911938190460205,
                -0.01938086748123169,
                -0.130126953125
            ],
            "type" : "VEC3"
        },
        {
            "bufferView" : 1,
            "componentType" : 5126,
            "count" : 1802,
            "type" : "VEC2"
        },
        {
            "bufferView" : 2,
            "componentType" : 5126,
            "count" : 1802,
            "type" : "VEC2"
        },
        {
            "bufferView" : 3,
            "componentType" : 5126,
            "count" : 1802,
            "type" : "VEC3"
        },
        {
            "bufferView" : 4,
            "componentType" : 5123,
            "count" : 6012,
            "type" : "SCALAR"
        },
        {
            "bufferView" : 5,
            "componentType" : 5126,
            "count" : 1800,
            "max" : [
                0,
                2.025265693664551,
                0.06542587280273438
            ],
            "min" : [
                -1.7973289489746094,
                0,
                0
            ],
            "type" : "VEC3"
        },
        {
            "bufferView" : 6,
            "componentType" : 5126,
            "count" : 1800,
            "type" : "VEC2"
        },
        {
            "bufferView" : 7,
            "componentType" : 5126,
            "count" : 1800,
            "type" : "VEC2"
        },
        {
            "bufferView" : 8,
            "componentType" : 5126,
            "count" : 1800,
            "type" : "VEC3"
        },
        {
            "bufferView" : 9,
            "componentType" : 5123,
            "count" : 3792,
            "type" : "SCALAR"
        },
        {
            "bufferView" : 10,
            "componentType" : 5126,
            "count" : 1804,
            "max" : [
                1.795099139213562,
                2.025265693664551,
                0.06542587280273438
            ],
            "min" : [
                0,
                0,
                0
            ],
            "type" : "VEC3"
        },
        {
            "bufferView" : 11,
            "componentType" : 5126,
            "count" : 1804,
            "type" : "VEC2"
        },
        {
            "bufferView" : 12,
            "componentType" : 5126,
            "count" : 1804,
            "type" : "VEC2"
        },
        {
            "bufferView" : 13,
            "componentType" : 5126,
            "count" : 1804,
            "type" : "VEC3"
        },
        {
            "bufferView" : 14,
            "componentType" : 5123,
            "count" : 3792,
            "type" : "SCALAR"
        }
    ],
    "bufferViews" : [
        {
            "buffer" : 0,
            "byteLength" : 21624,
            "byteOffset" : 0,
            "target" : 34962
        },
        {
            "buffer" : 0,
            "byteLength" : 14416,
            "byteOffset" : 21624,
            "target" : 34962
        },
        {
            "buffer" : 0,
            "byteLength" : 14416,
            "byteOffset" : 36040,
            "target" : 34962
        },
        {
            "buffer" : 0,
            "byteLength" : 21624,
            "byteOffset" : 50456,
            "target" : 34962
        },
        {
            "buffer" : 0,
            "byteLength" : 12024,
            "byteOffset" : 72080,
            "target" : 34963
        },
        {
            "buffer" : 0,
            "byteLength" : 21600,
            "byteOffset" : 84104,
            "target" : 34962
        },
        {
            "buffer" : 0,
            "byteLength" : 14400,
            "byteOffset" : 105704,
            "target" : 34962
        },
        {
            "buffer" : 0,
            "byteLength" : 14400,
            "byteOffset" : 120104,
            "target" : 34962
        },
        {
            "buffer" : 0,
            "byteLength" : 21600,
            "byteOffset" : 134504,
            "target" : 34962
        },
        {
            "buffer" : 0,
            "byteLength" : 7584,
            "byteOffset" : 156104,
            "target" : 34963
        },
        {
            "buffer" : 0,
            "byteLength" : 21648,
            "byteOffset" : 163688,
            "target" : 34962
        },
        {
            "buffer" : 0,
            "byteLength" : 14432,
            "byteOffset" : 185336,
            "target" : 34962
        },
        {
            "buffer" : 0,
            "byteLength" : 14432,
            "byteOffset" : 199768,
            "target" : 34962
        },
        {
            "buffer" : 0,
            "byteLength" : 21648,
            "byteOffset" : 214200,
            "target" : 34962
        },
        {
            "buffer" : 0,
            "byteLength" : 7584,
            "byteOffset" : 235848,
            "target" : 34963
        }
    ],
    "buffers" : [
        {
            "byteLength" : 243432,
            "uri" : "data:application/octet-stream;base64,"
        }
    ]
}
