{
    "asset" : {
        "generator" : "Khronos glTF Blender I/O v3.4.49",
        "version" : "2.0"
    },
    "scene" : 0,
    "scenes" : [
        {
            "name" : "Scene",
            "nodes" : [
                3
            ]
        }
    ],
    "nodes" : [
        {
            "mesh" : 0,
            "name" : "cristal_entrada"
        },
        {
            "mesh" : 1,
            "name" : "hoja_entrada.001",
            "translation" : [
                -0.6757025718688965,
                1.0260876417160034,
                -0.017632484436035156
            ]
        },
        {
            "children" : [
                1
            ],
            "mesh" : 2,
            "name" : "hoja_entrada",
            "translation" : [
                6.612484931945801,
                0.25,
                6.985449314117432
            ]
        },
        {
            "children" : [
                0,
                2
            ],
            "mesh" : 3,
            "name" : "entrada"
        }
    ],
    "meshes" : [
        {
            "name" : "Plane.082",
            "primitives" : [
                {
                    "attributes" : {
                        "POSITION" : 0,
                        "TEXCOORD_0" : 1,
                        "TEXCOORD_1" : 2,
                        "NORMAL" : 3
                    },
                    "indices" : 4
                },
                {
                    "attributes" : {
                        "POSITION" : 5,
                        "TEXCOORD_0" : 6,
                        "TEXCOORD_1" : 7,
                        "NORMAL" : 8
                    },
                    "indices" : 9
                }
            ]
        },
        {
            "name" : "Plane.219",
            "primitives" : [
                {
                    "attributes" : {
                        "POSITION" : 10,
                        "TEXCOORD_0" : 11,
                        "TEXCOORD_1" : 12,
                        "NORMAL" : 13
                    },
                    "indices" : 14
                }
            ]
        },
        {
            "name" : "Plane.079",
            "primitives" : [
                {
                    "attributes" : {
                        "POSITION" : 15,
                        "TEXCOORD_0" : 16,
                        "TEXCOORD_1" : 17,
                        "NORMAL" : 18
                    },
                    "indices" : 19
                },
                {
                    "attributes" : {
                        "POSITION" : 20,
                        "TEXCOORD_0" : 21,
                        "TEXCOORD_1" : 22,
                        "NORMAL" : 23
                    },
                    "indices" : 24
                }
            ]
        },
        {
            "name" : "Plane.078",
            "primitives" : [
                {
                    "attributes" : {
                        "POSITION" : 25,
                        "TEXCOORD_0" : 26,
                        "TEXCOORD_1" : 27,
                        "NORMAL" : 28
                    },
                    "indices" : 29
                }
            ]
        }
    ],
    "accessors" : [
        {
            "bufferView" : 0,
            "componentType" : 5126,
            "count" : 44,
            "max" : [
                5.862529277801514,
                2.3399999141693115,
                7.315634250640869
            ],
            "min" : [
                5.479793071746826,
                0.25,
                6.985416412353516
            ],
            "type" : "VEC3"
        },
        {
            "bufferView" : 1,
            "componentType" : 5126,
            "count" : 44,
            "type" : "VEC2"
        },
        {
            "bufferView" : 2,
            "componentType" : 5126,
            "count" : 44,
            "type" : "VEC2"
        },
        {
            "bufferView" : 3,
            "componentType" : 5126,
            "count" : 44,
            "type" : "VEC3"
        },
        {
            "bufferView" : 4,
            "componentType" : 5123,
            "count" : 66,
            "type" : "SCALAR"
        },
        {
            "bufferView" : 5,
            "componentType" : 5126,
            "count" : 8,
            "max" : [
                5.837332725524902,
                2.3128299713134766,
                7.041106700897217
            ],
            "min" : [
                5.5049896240234375,
                0.25,
                7.016268730163574
            ],
            "type" : "VEC3"
        },
        {
            "bufferView" : 6,
            "componentType" : 5126,
            "count" : 8,
            "type" : "VEC2"
        },
        {
            "bufferView" : 7,
            "componentType" : 5126,
            "count" : 8,
            "type" : "VEC2"
        },
        {
            "bufferView" : 8,
            "componentType" : 5126,
            "count" : 8,
            "type" : "VEC3"
        },
        {
            "bufferView" : 9,
            "componentType" : 5123,
            "count" : 12,
            "type" : "SCALAR"
        },
        {
            "bufferView" : 10,
            "componentType" : 5126,
            "count" : 653,
            "max" : [
                0.10729056596755981,
                0.010420918464660645,
                1.1920928955078125e-07
            ],
            "min" : [
                -0.010419189929962158,
                -0.010419964790344238,
                -0.026175260543823242
            ],
            "type" : "VEC3"
        },
        {
            "bufferView" : 11,
            "componentType" : 5126,
            "count" : 653,
            "type" : "VEC2"
        },
        {
            "bufferView" : 12,
            "componentType" : 5126,
            "count" : 653,
            "type" : "VEC2"
        },
        {
            "bufferView" : 13,
            "componentType" : 5126,
            "count" : 653,
            "type" : "VEC3"
        },
        {
            "bufferView" : 14,
            "componentType" : 5123,
            "count" : 3126,
            "type" : "SCALAR"
        },
        {
            "bufferView" : 15,
            "componentType" : 5126,
            "count" : 736,
            "max" : [
                -1.1920928955078125e-07,
                2.0899999141693115,
                0.13005276024341583
            ],
            "min" : [
                -0.7499556541442871,
                0,
                5.960464477539063e-08
            ],
            "type" : "VEC3"
        },
        {
            "bufferView" : 16,
            "componentType" : 5126,
            "count" : 736,
            "type" : "VEC2"
        },
        {
            "bufferView" : 17,
            "componentType" : 5126,
            "count" : 736,
            "type" : "VEC2"
        },
        {
            "bufferView" : 18,
            "componentType" : 5126,
            "count" : 736,
            "type" : "VEC3"
        },
        {
            "bufferView" : 19,
            "componentType" : 5123,
            "count" : 1812,
            "type" : "SCALAR"
        },
        {
            "bufferView" : 20,
            "componentType" : 5126,
            "count" : 1346,
            "max" : [
                -0.26587045192718506,
                1.139374017715454,
                0.18576985597610474
            ],
            "min" : [
                -0.707848846912384,
                0.8635353446006775,
                -0.017632365226745605
            ],
            "type" : "VEC3"
        },
        {
            "bufferView" : 21,
            "componentType" : 5126,
            "count" : 1346,
            "type" : "VEC2"
        },
        {
            "bufferView" : 22,
            "componentType" : 5126,
            "count" : 1346,
            "type" : "VEC2"
        },
        {
            "bufferView" : 23,
            "componentType" : 5126,
            "count" : 1346,
            "type" : "VEC3"
        },
        {
            "bufferView" : 24,
            "componentType" : 5123,
            "count" : 4968,
            "type" : "SCALAR"
        },
        {
            "bufferView" : 25,
            "componentType" : 5126,
            "count" : 48,
            "max" : [
                6.6724853515625,
                2.4024996757507324,
                7.315634250640869
            ],
            "min" : [
                5.419792652130127,
                0.25,
                6.985416412353516
            ],
            "type" : "VEC3"
        },
        {
            "bufferView" : 26,
            "componentType" : 5126,
            "count" : 48,
            "type" : "VEC2"
        },
        {
            "bufferView" : 27,
            "componentType" : 5126,
            "count" : 48,
            "type" : "VEC2"
        },
        {
            "bufferView" : 28,
            "componentType" : 5126,
            "count" : 48,
            "type" : "VEC3"
        },
        {
            "bufferView" : 29,
            "componentType" : 5123,
            "count" : 72,
            "type" : "SCALAR"
        }
    ],
    "bufferViews" : [
        {
            "buffer" : 0,
            "byteLength" : 528,
            "byteOffset" : 0,
            "target" : 34962
        },
        {
            "buffer" : 0,
            "byteLength" : 352,
            "byteOffset" : 528,
            "target" : 34962
        },
        {
            "buffer" : 0,
            "byteLength" : 352,
            "byteOffset" : 880,
            "target" : 34962
        },
        {
            "buffer" : 0,
            "byteLength" : 528,
            "byteOffset" : 1232,
            "target" : 34962
        },
        {
            "buffer" : 0,
            "byteLength" : 132,
            "byteOffset" : 1760,
            "target" : 34963
        },
        {
            "buffer" : 0,
            "byteLength" : 96,
            "byteOffset" : 1892,
            "target" : 34962
        },
        {
            "buffer" : 0,
            "byteLength" : 64,
            "byteOffset" : 1988,
            "target" : 34962
        },
        {
            "buffer" : 0,
            "byteLength" : 64,
            "byteOffset" : 2052,
            "target" : 34962
        },
        {
            "buffer" : 0,
            "byteLength" : 96,
            "byteOffset" : 2116,
            "target" : 34962
        },
        {
            "buffer" : 0,
            "byteLength" : 24,
            "byteOffset" : 2212,
            "target" : 34963
        },
        {
            "buffer" : 0,
            "byteLength" : 7836,
            "byteOffset" : 2236,
            "target" : 34962
        },
        {
            "buffer" : 0,
            "byteLength" : 5224,
            "byteOffset" : 10072,
            "target" : 34962
        },
        {
            "buffer" : 0,
            "byteLength" : 5224,
            "byteOffset" : 15296,
            "target" : 34962
        },
        {
            "buffer" : 0,
            "byteLength" : 7836,
            "byteOffset" : 20520,
            "target" : 34962
        },
        {
            "buffer" : 0,
            "byteLength" : 6252,
            "byteOffset" : 28356,
            "target" : 34963
        },
        {
            "buffer" : 0,
            "byteLength" : 8832,
            "byteOffset" : 34608,
            "target" : 34962
        },
        {
            "buffer" : 0,
            "byteLength" : 5888,
            "byteOffset" : 43440,
            "target" : 34962
        },
        {
            "buffer" : 0,
            "byteLength" : 5888,
            "byteOffset" : 49328,
            "target" : 34962
        },
        {
            "buffer" : 0,
            "byteLength" : 8832,
            "byteOffset" : 55216,
            "target" : 34962
        },
        {
            "buffer" : 0,
            "byteLength" : 3624,
            "byteOffset" : 64048,
            "target" : 34963
        },
        {
            "buffer" : 0,
            "byteLength" : 16152,
            "byteOffset" : 67672,
            "target" : 34962
        },
        {
            "buffer" : 0,
            "byteLength" : 10768,
            "byteOffset" : 83824,
            "target" : 34962
        },
        {
            "buffer" : 0,
            "byteLength" : 10768,
            "byteOffset" : 94592,
            "target" : 34962
        },
        {
            "buffer" : 0,
            "byteLength" : 16152,
            "byteOffset" : 105360,
            "target" : 34962
        },
        {
            "buffer" : 0,
            "byteLength" : 9936,
            "byteOffset" : 121512,
            "target" : 34963
        },
        {
            "buffer" : 0,
            "byteLength" : 576,
            "byteOffset" : 131448,
            "target" : 34962
        },
        {
            "buffer" : 0,
            "byteLength" : 384,
            "byteOffset" : 132024,
            "target" : 34962
        },
        {
            "buffer" : 0,
            "byteLength" : 384,
            "byteOffset" : 132408,
            "target" : 34962
        },
        {
            "buffer" : 0,
            "byteLength" : 576,
            "byteOffset" : 132792,
            "target" : 34962
        },
        {
            "buffer" : 0,
            "byteLength" : 144,
            "byteOffset" : 133368,
            "target" : 34963
        }
    ],
    "buffers" : [
        {
            "byteLength" : 133512,
            "uri" : "data:application/octet-stream;base64,"
        }
    ]
}
